<svg xmlns="http://www.w3.org/2000/svg" viewBox="0 0 64 64" role="img" aria-label="WhatsApp">
  <defs>
    <linearGradient id="wa-bg" x1="0" x2="1" y1="0" y2="1">
      <stop offset="0" stop-color="#25D366"/>
      <stop offset="1" stop-color="#1ea952"/>
    </linearGradient>
  </defs>
  <circle cx="32" cy="32" r="32" fill="url(#wa-bg)"/>
  <path fill="#ffffff" d="M44.5 37.8c-.5-.3-3.1-1.5-3.6-1.7-.5-.2-.8-.3-1.1.3s-1.4 1.7-1.7 2.1c-.3.4-.6.4-1.1.1-.5-.3-2.1-.8-4.1-2.6-1.5-1.3-2.6-3-2.9-3.5-.3-.5 0-.8.2-1.1.2-.2.5-.6.8-.9.3-.3.4-.5.5-.9.2-.3.1-.6 0-.9-.1-.3-1.1-2.7-1.6-3.7-.4-.9-.9-.8-1.1-.8h-1c-.4 0-.9.2-1.4.8-.5.6-1.9 1.9-1.9 4.6 0 2.7 2 5.4 2.2 5.8.3.4 3.9 6 9.4 8.4 1.3.6 2.3 1 3.1 1.2 1.3.4 2.5.3 3.5.2 1.1-.2 3.1-1.3 3.5-2.6.4-1.3.4-2.4.3-2.7-.1-.2-.5-.4-1-.7z"/>
  <path fill="#ffffff" d="M32.1 13C21.6 13 13 21.5 13 32c0 3.4.9 6.8 2.6 9.8L13 51l9.5-2.5c2.9 1.6 6.1 2.4 9.5 2.4h.1c10.5 0 19-8.5 19-19S42.6 13 32.1 13zm0 34.5H32c-3 0-6-0.8-8.5-2.3l-.6-.4-5.6 1.5 1.5-5.4-.4-.6c-1.6-2.5-2.5-5.4-2.5-8.4 0-8.9 7.3-16.2 16.2-16.2 4.3 0 8.4 1.7 11.5 4.8 3.1 3.1 4.8 7.1 4.8 11.5 0 9-7.3 16.3-16.3 16.3z"/>
</svg>
